<svg viewBox="0 0 800 400" width="800" height="400" xmlns="http://www.w3.org/2000/svg">
  <style>
  </style>
  <a href="https://willwray.github.io/tupl/intro/what_is_tupl.html">
    <g>
      <circle cx="400" cy="110" style="opacity:0.64;fill:#ff2a2a;stroke-width:0.264583" r="76" />
      <path d="m 389.47,59.968 c 0,-1.134 -0.168,-1.806 -0.63,-2.73 -0.588,-0.336 -0.714,-0.378 -1.68,-0.672 -1.176,0.546 -1.68,0.84 -2.688,1.722 1.134,1.176 1.554,2.268 1.554,3.99 0,1.848 -0.714,4.158 -2.016,6.72 -1.638,3.15 -3.948,6.3 -9.03,12.222 l 0.21,-3.696 0.252,-5.922 0.378,-7.392 0.21,-3.276 -2.436,0.966 c -1.932,3.276 -9.24,14.112 -12.39,18.396 l 3.108,-17.682 c 0.882,-0.294 1.386,-0.588 2.184,-1.344 -8.148,0.084 -8.652,0.084 -10.164,0.588 -3.612,1.176 -5.964,4.074 -5.964,7.392 0,1.386 0.336,2.562 1.05,3.78 l 3.15,-1.974 c -0.966,-1.47 -1.386,-2.688 -1.386,-4.116 0,-1.722 0.84,-3.024 2.394,-3.57 1.008,-0.378 2.016,-0.462 5.166,-0.504 l -3.696,22.848 2.73,-0.84 12.6,-18.522 c -0.084,5.04 -0.546,15.54 -0.924,19.362 l 2.688,-0.882 c 1.428,-2.184 1.932,-2.898 4.62,-6.216 7.938,-9.744 10.71,-14.532 10.71,-18.648 z"/>
      <path d="m 403.91796,80.842 0.294,-1.218 c -3.57,2.1 -4.158,2.394 -4.704,2.394 -0.378,0 -0.63,-0.42 -0.63,-1.092 0,-0.84 0.252,-2.058 0.966,-4.788 1.344,-4.956 2.016,-7.518 2.016,-7.686 0,-0.42 -0.336,-0.714 -0.882,-0.714 -0.882,0 -3.78,1.596 -9.03,4.998 l 1.428,-5.628 c 1.008,-4.116 1.428,-5.418 1.974,-6.468 0.588,-1.176 1.47,-1.722 2.604,-1.722 0.546,0 0.882,0.042 2.52,0.378 l 1.806,-2.562 c -0.756,-0.168 -1.092,-0.21 -1.722,-0.21 -2.31,0 -3.528,0.63 -6.594,3.318 -2.184,1.932 -2.52,2.646 -3.822,8.19 l -4.032,17.346 2.982,-1.218 2.478,-9.786 c 0.42,-0.294 0.924,-0.588 1.008,-0.63 2.898,-1.848 4.662,-2.772 5.124,-2.772 0.294,0 0.504,0.294 0.504,0.672 0,0.504 -0.168,1.302 -0.756,3.57 -1.302,5.04 -1.806,7.476 -1.806,8.61 0,0.504 0.168,1.008 0.63,1.806 2.31,-1.176 5.334,-3.108 7.644,-4.788 z"/>
      <path d="m 422.06191,80.842 v -1.218 c -0.798,0.504 -3.57,2.478 -4.242,2.478 -0.42,0 -0.504,-0.546 -0.504,-0.924 0,-1.554 1.89,-9.24 2.394,-11.298 0.168,-0.252 1.008,-1.302 1.218,-1.512 -1.428,-0.378 -3.276,-0.63 -4.956,-0.63 -2.814,0 -3.108,0.294 -5.04,1.638 -1.134,0.798 -2.184,1.26 -2.982,2.52 -2.1,3.276 -2.898,7.518 -2.898,10.164 0,1.26 0.336,3.528 1.806,3.528 1.554,0 5.334,-3.15 7.518,-4.662 l -0.294,1.89 c -0.252,1.428 -0.504,2.73 0.504,2.73 1.05,0 6.258,-3.822 7.476,-4.704 z m -7.434,-1.554 c -1.26,0.924 -4.032,3.192 -5.124,3.192 -1.092,0 -1.302,-1.134 -1.302,-2.142 0,-2.688 0.84,-5.754 1.932,-7.896 0.714,-1.47 1.386,-2.688 3.276,-2.688 1.05,0 2.352,0.294 3.402,0.504 z"/>
      <path d="m 434.24183,80.758 0.084,-1.05 c -3.192,1.89 -4.536,2.604 -5.124,2.604 -0.546,0 -1.218,-1.092 -1.218,-1.974 0,-0.588 0.714,-3.822 1.806,-8.232 0.588,-0.042 1.008,-0.042 1.218,-0.042 l 1.68,-0.042 c 0.168,0 0.588,-0.042 1.26,-0.126 l 1.596,-1.218 h -5.376 l 1.68,-6.804 c -0.798,0.42 -1.134,0.546 -1.764,0.84 -0.294,0.168 -0.63,0.294 -0.966,0.462 -0.168,0.084 -0.378,0.168 -0.588,0.252 l -1.176,5.25 c -0.378,0.042 -0.63,0.042 -0.756,0.042 h -1.008 c 0,0 -0.294,0 -0.63,0.042 -0.462,0.294 -0.504,0.294 -1.218,0.882 -0.126,0.084 -0.336,0.252 -0.63,0.462 h 1.008 1.932 0.924 c -2.226,9.324 -2.226,9.324 -2.226,10.626 0,1.344 0.882,2.814 1.68,2.814 0.924,0 3.78,-1.764 7.812,-4.788 z"/>
      <path d="m 443.39782,60.178 h -1.722 l -2.016,7.812 1.218,-0.504 z"/>
      <path d="m 455.07381,69.166 c -0.84,-1.008 -1.638,-1.428 -2.814,-1.428 -3.066,0 -7.014,3.654 -7.014,6.426 0,1.302 0.672,2.31 2.268,3.444 2.1,1.47 2.394,1.848 2.394,2.898 0,1.512 -1.932,3.276 -3.57,3.276 -0.924,0 -1.638,-0.504 -2.058,-1.428 -0.294,-0.63 -0.378,-1.26 -0.42,-2.688 -0.462,0.336 -0.798,0.546 -0.966,0.672 -0.336,0.21 -0.714,0.42 -1.092,0.672 0,0 -0.336,0.21 -0.756,0.504 -0.042,0.378 -0.084,0.714 -0.084,0.966 0,1.806 1.26,3.066 3.108,3.066 1.302,0 3.108,-0.546 4.452,-1.302 2.478,-1.428 3.99,-3.57 3.99,-5.67 0,-1.554 -0.294,-1.89 -2.646,-3.36 -1.428,-0.924 -2.016,-1.722 -2.016,-2.814 0,-1.428 1.218,-2.688 2.646,-2.688 0.966,0 1.68,0.462 2.604,1.638 1.428,-1.386 1.428,-1.386 1.974,-2.184 z"/>
      <path d="m 367.848,126.552 c 3.036,0 5.428,-0.644 7.452,-1.242 l -1.196,-4.876 c -1.38,0.46 -2.806,0.828 -4.508,0.828 -3.358,0 -4.83,-1.334 -4.83,-4.784 v -8.004 h 9.66 v -5.29 h -9.66 V 96.192 H 359.2 l -0.874,6.992 -6.072,0.276 v 5.014 h 5.75 v 8.05 c 0,5.98 2.576,10.028 9.844,10.028 z" />
      <path d="m 387.85793,126.552 c 3.266,0 5.658,-1.518 7.682,-3.818 h 0.184 l 0.506,3.266 h 5.52 v -22.816 h -6.762 v 14.996 c -1.564,2.024 -2.76,2.622 -4.462,2.622 -2.53,0 -3.312,-1.38 -3.312,-4.416 v -13.202 h -6.762 v 14.076 c 0,5.75 2.208,9.292 7.406,9.292 z"/>
      <path d="m 408.51186,134.464 h 6.762 v -6.67 l -0.322,-3.726 h 0.184 c 1.61,1.61 3.588,2.484 5.612,2.484 5.106,0 9.89,-4.508 9.89,-12.328 0,-7.038 -3.45,-11.592 -9.154,-11.592 -2.438,0 -4.968,1.196 -6.808,2.852 h -0.138 l -0.506,-2.3 h -5.52 z m 10.672,-13.432 c -1.15,0 -2.622,-0.414 -3.91,-1.518 v -9.246 c 1.426,-1.472 2.76,-2.116 4.232,-2.116 2.852,0 4.186,2.07 4.186,6.164 0,4.692 -1.978,6.716 -4.508,6.716 z"/>
      <path d="m 450.96979,126.552 c 2.852,0 4.462,-0.46 6.854,-1.242 l -1.518,-4.968 c -1.38,0.552 -2.484,0.736 -3.542,0.736 -1.932,0 -3.726,-0.92 -3.726,-3.726 V 93.754 h -13.938 v 5.336 h 7.176 v 17.986 c 0,5.796 2.99,9.476 8.694,9.476 z"/>
      <path d="m 394.878,148.116 c 0,-2.898 -1.512,-5.082 -4.368,-6.342 -1.806,-0.798 -3.948,-1.134 -8.022,-1.386 l 0.294,-1.176 -3.024,1.26 c -3.444,0.588 -5.628,1.344 -7.854,2.772 -3.57,2.31 -5.292,5.124 -5.292,8.694 0,0.798 0.042,1.302 0.294,2.394 l 3.444,-1.554 c -0.252,-1.092 -0.294,-1.596 -0.294,-2.352 0,-4.998 3.108,-7.938 8.988,-8.526 l -3.15,12.516 c -1.638,7.014 -2.73,8.316 -7.266,8.652 L 366.612,165 h 5.334 c 6.93,0 8.61,-0.126 10.836,-0.924 3.36,-1.134 6.804,-3.318 8.442,-5.334 2.142,-2.646 3.654,-7.056 3.654,-10.626 z m -3.654,0.84 c 0,3.612 -1.386,8.106 -3.276,10.5 -2.058,2.646 -4.536,3.654 -8.862,3.654 h -0.63 l -5.376,-0.168 c 4.872,-4.536 4.872,-4.536 6.762,-12.138 l 2.31,-9.114 c 3.066,0.126 4.494,0.378 5.796,1.05 2.058,1.092 3.276,3.402 3.276,6.216 z"/>
      <path d="m 411.25795,151.602 c 0,-2.268 -1.554,-3.864 -3.78,-3.864 -1.68,0 -4.368,1.218 -6.846,3.066 -2.688,2.016 -4.578,6.384 -4.578,10.542 0,2.562 1.428,4.2 3.654,4.2 1.176,0 2.352,-0.42 4.284,-1.428 2.1,-1.176 3.486,-2.226 4.242,-3.234 1.68,-2.268 3.024,-6.384 3.024,-9.282 z m -3.234,2.268 c 0,1.764 -0.588,3.948 -1.638,6.006 -1.176,2.394 -2.688,3.696 -4.284,3.696 -1.722,0 -2.814,-1.554 -2.814,-3.948 0,-4.872 3.066,-9.912 6.006,-9.912 1.68,0 2.73,1.638 2.73,4.158 z"/>
      <path d="m 425.20194,161.01 0.084,-1.344 c -3.234,2.31 -5.46,3.486 -6.804,3.486 -1.512,0 -2.394,-1.176 -2.394,-3.192 0,-2.016 0.504,-4.704 1.302,-6.678 0.84,-2.226 1.932,-3.36 3.15,-3.36 1.008,0 1.554,0.798 1.764,2.646 l 2.436,-1.428 c 0.042,-0.21 0.042,-0.462 0.042,-0.462 0,-1.806 -0.924,-2.94 -2.394,-2.94 -0.756,0 -1.218,0.168 -2.73,1.176 -3.15,1.974 -3.822,2.604 -4.746,4.326 -1.176,2.268 -2.058,5.838 -2.058,8.442 0,2.436 1.134,3.864 3.066,3.864 2.016,0 5.46,-1.68 9.282,-4.536 z"/>
      <path d="m 439.31386,149.166 c -0.84,-1.008 -1.638,-1.428 -2.814,-1.428 -3.066,0 -7.014,3.654 -7.014,6.426 0,1.302 0.672,2.31 2.268,3.444 2.1,1.47 2.394,1.848 2.394,2.898 0,1.512 -1.932,3.276 -3.57,3.276 -0.924,0 -1.638,-0.504 -2.058,-1.428 -0.294,-0.63 -0.378,-1.26 -0.42,-2.688 -0.462,0.336 -0.798,0.546 -0.966,0.672 -0.336,0.21 -0.714,0.42 -1.092,0.672 0,0 -0.336,0.21 -0.756,0.504 -0.042,0.378 -0.084,0.714 -0.084,0.966 0,1.806 1.26,3.066 3.108,3.066 1.302,0 3.108,-0.546 4.452,-1.302 2.478,-1.428 3.99,-3.57 3.99,-5.67 0,-1.554 -0.294,-1.89 -2.646,-3.36 -1.428,-0.924 -2.016,-1.722 -2.016,-2.814 0,-1.428 1.218,-2.688 2.646,-2.688 0.966,0 1.68,0.462 2.604,1.638 1.428,-1.386 1.428,-1.386 1.974,-2.184 z"/>
    </g>
  </a>
</svg>
